<?xml version="1.0" standalone="no"?>
<!DOCTYPE svg PUBLIC "-//W3C//DTD SVG 20010904//EN"
 "http://www.w3.org/TR/2001/REC-SVG-20010904/DTD/svg10.dtd">
<svg version="1.0" xmlns="http://www.w3.org/2000/svg"
 width="150.000000pt" height="150.000000pt" viewBox="0 0 150.000000 150.000000"
 preserveAspectRatio="xMidYMid meet">
<metadata>
Created by potrace 1.14, written by Peter Selinger 2001-2017
</metadata>
<g transform="translate(0.000000,150.000000) scale(0.100000,-0.100000)"
fill="#000000" stroke="none">
<path d="M565 1435 c-72 -13 -153 -26 -180 -29 -50 -7 -198 -31 -245 -41 -14
-3 -38 -8 -54 -10 -45 -9 -66 -24 -67 -48 -5 -111 -3 -476 3 -489 5 -9 18 -18
30 -20 22 -3 23 -9 26 -87 l3 -84 70 -103 c39 -57 74 -104 77 -105 8 -1 50 -9
72 -14 8 -2 18 -4 23 -4 4 -1 7 -26 7 -56 0 -43 3 -55 16 -55 10 0 3 -12 -20
-34 -20 -18 -36 -38 -36 -43 0 -5 44 -26 98 -47 53 -21 111 -44 127 -51 17 -8
63 -26 103 -40 73 -26 99 -26 197 1 6 2 107 27 225 57 117 30 216 59 218 66 9
28 -10 62 -51 86 -24 14 -51 25 -60 25 -33 0 -16 18 28 29 27 7 45 17 45 25 0
16 25 25 148 55 46 11 90 27 98 35 12 12 15 64 19 288 8 568 8 619 -2 629 -17
17 -197 60 -233 56 -19 -3 -89 -13 -156 -22 -114 -17 -124 -17 -185 -1 -87 23
-181 47 -199 50 -8 2 -74 -7 -145 -19z"/>
</g>
</svg>
